<svg version="1.1" id="Layer_1" xmlns="http://www.w3.org/2000/svg" xmlns:xlink="http://www.w3.org/1999/xlink" x="0px" y="0px"
	 width="100%" viewBox="0 0 225 225" enable-background="new 0 0 225 225" xml:space="preserve">
<path fill="#FFFFFE" opacity="1.000000" stroke="none" 
	d="
M149.000000,226.000000 
	C99.333336,226.000000 50.166672,226.000000 1.000007,226.000000 
	C1.000004,151.000000 1.000004,76.000015 1.000002,1.000017 
	C75.999992,1.000011 150.999985,1.000011 225.999969,1.000006 
	C225.999985,75.999985 225.999985,150.999969 226.000000,225.999969 
	C200.500000,226.000000 175.000000,226.000000 149.000000,226.000000 
M138.528381,186.449295 
	C138.528381,186.449295 138.590210,186.567459 138.812103,187.016953 
	C139.221573,187.281845 139.631042,187.546753 140.801895,188.156784 
	C150.557404,188.160095 160.312912,188.163406 170.691544,188.154526 
	C171.165161,187.789764 171.638779,187.424988 172.751831,186.663239 
	C172.772369,183.873749 173.848770,180.483612 172.654892,178.384979 
	C155.046143,147.431946 137.171295,116.629837 119.263962,85.847549 
	C116.035408,80.297729 111.000542,80.425835 107.635246,86.011108 
	C103.685509,92.566353 99.904099,99.223305 96.070229,105.848038 
	C86.317551,122.700172 76.551506,139.544678 66.846878,156.424454 
	C64.214241,161.003555 65.138176,164.859863 69.138130,166.350677 
	C73.343895,167.918198 75.613792,165.491196 77.531784,162.169296 
	C88.516068,143.145004 99.550766,124.149811 110.581245,105.152222 
	C111.436081,103.679962 112.389946,102.265213 113.622437,100.308250 
	C128.417389,125.870544 142.801086,150.722305 157.278503,175.735977 
	C147.959625,177.799469 146.952621,177.381653 142.762268,170.143616 
	C135.174530,157.037247 127.597862,143.924423 119.986717,130.831650 
	C115.895767,123.794350 111.109589,123.792534 107.010155,130.843979 
	C99.817062,143.216873 92.196648,155.375519 85.703369,168.107468 
	C82.161232,175.052872 77.861206,177.528870 70.233192,176.864304 
	C61.876858,176.136292 53.408112,176.698608 43.871746,176.698608 
	C67.363480,136.127487 90.263855,96.577675 113.430389,56.568207 
	C114.332054,58.009163 114.790291,58.695366 115.203148,59.407867 
	C134.975632,93.530846 154.742569,127.657028 174.514420,161.780365 
	C178.936066,169.411484 183.410583,177.012238 187.787140,184.669052 
	C189.872269,188.317017 192.912918,189.705673 196.541824,187.658264 
	C200.278931,185.549820 200.284409,182.113602 198.262726,178.586426 
	C197.849091,177.864761 197.489868,177.111786 197.072769,176.392242 
	C171.454025,132.196548 145.833694,88.001785 120.208305,43.809948 
	C115.829338,36.258286 111.173965,36.260994 106.781784,43.833694 
	C91.838188,69.598389 76.909569,95.371773 61.975178,121.141815 
	C51.212147,139.713974 40.429592,158.274857 29.697933,176.865128 
	C26.516882,182.375610 26.867189,184.749191 31.500153,188.105255 
	C31.675243,188.100494 31.850334,188.095718 32.918186,188.401230 
	C48.212349,188.542603 63.518776,188.371384 78.794968,188.970749 
	C85.416290,189.230499 89.068680,186.821014 92.131859,181.124603 
	C98.811195,168.703400 106.153519,156.638718 113.435982,144.063919 
	C121.048164,156.977264 128.444168,169.523911 135.943237,182.652527 
	C136.212341,182.928528 136.481445,183.204514 136.855530,183.964203 
	C137.117615,184.370590 137.379700,184.776962 137.772949,185.659760 
	C137.898834,185.987549 138.125854,186.213837 138.528381,186.449295 
z"/>
<path fill="#ED902D" opacity="1.000000" stroke="none" 
	d="
M170.068420,188.166748 
	C160.312912,188.163406 150.557404,188.160095 140.367508,187.698669 
	C139.485474,187.016205 139.037842,186.791840 138.590210,186.567474 
	C138.590210,186.567459 138.528381,186.449295 138.529816,186.111450 
	C138.234756,185.576859 137.938263,185.380096 137.641785,185.183350 
	C137.379700,184.776962 137.117615,184.370590 136.773300,183.421356 
	C136.407440,182.609192 136.123810,182.339874 135.840179,182.070541 
	C128.444168,169.523911 121.048164,156.977264 113.435982,144.063919 
	C106.153519,156.638718 98.811195,168.703400 92.131859,181.124603 
	C89.068680,186.821014 85.416290,189.230499 78.794968,188.970749 
	C63.518776,188.371384 48.212349,188.542603 32.399773,188.069183 
	C31.597113,187.782547 31.312868,187.827957 31.028622,187.873352 
	C26.867189,184.749191 26.516882,182.375610 29.697933,176.865128 
	C40.429592,158.274857 51.212147,139.713974 61.975178,121.141815 
	C76.909569,95.371773 91.838188,69.598389 106.781784,43.833694 
	C111.173965,36.260994 115.829338,36.258286 120.208305,43.809948 
	C145.833694,88.001785 171.454025,132.196548 197.072769,176.392242 
	C197.489868,177.111786 197.849091,177.864761 198.262726,178.586426 
	C200.284409,182.113602 200.278931,185.549820 196.541824,187.658264 
	C192.912918,189.705673 189.872269,188.317017 187.787140,184.669052 
	C183.410583,177.012238 178.936066,169.411484 174.514420,161.780365 
	C154.742569,127.657028 134.975632,93.530846 115.203148,59.407867 
	C114.790291,58.695366 114.332054,58.009163 113.430389,56.568207 
	C90.263855,96.577675 67.363480,136.127487 43.871746,176.698608 
	C53.408112,176.698608 61.876858,176.136292 70.233192,176.864304 
	C77.861206,177.528870 82.161232,175.052872 85.703369,168.107468 
	C92.196648,155.375519 99.817062,143.216873 107.010155,130.843979 
	C111.109589,123.792534 115.895767,123.794350 119.986717,130.831650 
	C127.597862,143.924423 135.174530,157.037247 142.762268,170.143616 
	C146.952621,177.381653 147.959625,177.799469 157.278503,175.735977 
	C142.801086,150.722305 128.417389,125.870544 113.622437,100.308250 
	C112.389946,102.265213 111.436081,103.679962 110.581245,105.152222 
	C99.550766,124.149811 88.516068,143.145004 77.531784,162.169296 
	C75.613792,165.491196 73.343895,167.918198 69.138130,166.350677 
	C65.138176,164.859863 64.214241,161.003555 66.846878,156.424454 
	C76.551506,139.544678 86.317551,122.700172 96.070229,105.848038 
	C99.904099,99.223305 103.685509,92.566353 107.635246,86.011108 
	C111.000542,80.425835 116.035408,80.297729 119.263962,85.847549 
	C137.171295,116.629837 155.046143,147.431946 172.654892,178.384979 
	C173.848770,180.483612 172.772369,183.873749 172.118439,186.871521 
	C171.012848,187.442123 170.540634,187.804428 170.068420,188.166748 
z"/>
<path fill="#EFA050" opacity="1.000000" stroke="none" 
	d="
M138.701157,186.792206 
	C139.037842,186.791840 139.485474,187.016205 139.986816,187.526123 
	C139.631042,187.546753 139.221573,187.281845 138.701157,186.792206 
z"/>
<path fill="#EFA050" opacity="1.000000" stroke="none" 
	d="
M170.379974,188.160645 
	C170.540634,187.804428 171.012848,187.442123 171.798737,187.070023 
	C171.638779,187.424988 171.165161,187.789764 170.379974,188.160645 
z"/>
<path fill="#EFA050" opacity="1.000000" stroke="none" 
	d="
M135.891708,182.361542 
	C136.123810,182.339874 136.407440,182.609192 136.720810,183.179520 
	C136.481445,183.204514 136.212341,182.928528 135.891708,182.361542 
z"/>
<path fill="#EFA050" opacity="1.000000" stroke="none" 
	d="
M137.707367,185.421555 
	C137.938263,185.380096 138.234756,185.576859 138.492615,186.056122 
	C138.125854,186.213837 137.898834,185.987549 137.707367,185.421555 
z"/>
<path fill="#EC8A1C" opacity="1.000000" stroke="none" 
	d="
M31.264389,187.989304 
	C31.312868,187.827957 31.597113,187.782547 31.953392,187.914032 
	C31.850334,188.095718 31.675243,188.100494 31.264389,187.989304 
z"/>
</svg>